<svg width="364" height="357" viewBox="0 0 364 357" fill="none" xmlns="http://www.w3.org/2000/svg">
<path id="Circle" d="M11.4999 181C11.4999 169.047 10.0548 154.952 8.3895 140.169C8.15707 138.106 7.92028 136.029 7.68226 133.941C6.20884 121.016 4.68856 107.68 3.86738 94.7062C2.91328 79.6322 2.91484 65.1932 4.99474 52.6304C7.07645 40.0567 11.202 29.5974 18.2998 22.2352C25.7843 14.4718 36.6052 9.59846 49.6744 6.74817C62.7325 3.9003 77.8179 3.11885 93.5906 3.36859C109.355 3.61819 125.684 4.89404 141.233 6.11513L141.573 6.14187C156.954 7.34976 171.602 8.50013 184 8.50013C236.466 8.50013 283.459 31.9199 315.101 68.8843C340.912 99.0379 356.5 138.196 356.5 181C356.5 194.26 357.659 208.368 358.817 222.464L358.843 222.781C360.014 237.025 361.175 251.259 361.185 264.825C361.205 292.048 356.571 315.818 338.866 331.108C331.606 337.377 321.135 341.999 308.608 345.351C296.112 348.696 281.768 350.726 266.933 351.94C243.06 353.892 218.155 353.714 197.904 353.569C192.965 353.533 188.303 353.5 184 353.5C138.078 353.5 96.3512 335.559 65.4389 306.298C32.2186 274.853 11.4999 230.348 11.4999 181Z" stroke="#8075FF" stroke-width="5"/>
</svg>
